<svg xmlns="http://www.w3.org/2000/svg" width="18.571" height="16.429" viewBox="0 0 18.571 16.429"><g transform="translate(0 0)"><path d="M310.285,7.926a.44.44,0,0,1,.363-.435,4.438,4.438,0,0,1,.746-.049q8.134,0,16.268,0c1.151,0,1.193.045,1.194,1.182q0,5.952,0,11.9c0,.918-.063.981-.973.983-2.006,0-4.012.013-6.018-.007-.5-.005-.711.129-.706.668s.141.711.792.727c.3.007.62.007.953.007.362,0,.87-.128.887.455.016.542-.482.488-.84.492-1.543.017-3.086.015-4.629.016-.771,0-1.543,0-2.314-.019-.326-.009-.732-.016-.729-.476,0-.589.648-.485,1-.487.23,0,.4,0,.676-.01.732-.024.986-.034.989-.675,0-.571-.219-.7-.744-.7-2.006.022-4.012.009-6.018.008a1.983,1.983,0,0,1-.7-.066.306.306,0,0,1-.195-.289Zm9.261,12.709c2.557,0,5.114-.014,7.67.011.559.005.774-.13.77-.733q-.038-5.389,0-10.778c0-.6-.2-.745-.767-.743q-7.67.026-15.341,0c-.56,0-.773.142-.769.74q.036,5.389,0,10.778c0,.6.206.741.767.735C314.432,20.62,316.989,20.634,319.546,20.634Zm-.111.828a.679.679,0,0,0-.752.744c-.006.487.25.715.795.7A.722.722,0,0,0,319.435,21.463Z" transform="translate(-310.285 -7.442)" fill="#f04e98"/><path d="M343.353,40.477c0,.946.009,1.892-.006,2.837,0,.262-.058.539-.367.641a.4.4,0,0,1-.423-.114.785.785,0,0,1-.156-.685c.06-.564-.2-.725-.726-.7-.812.033-1.627.006-2.441.006-.375,0-.618-.121-.674-.549a4.42,4.42,0,0,1,3.2-4.845,3.024,3.024,0,0,1,.583-.1c.863-.058,1.007.071,1.018.938s0,1.716,0,2.574Zm-.958-.767c0-.439-.021-.88.006-1.317.028-.474-.208-.522-.567-.4a3.288,3.288,0,0,0-2.243,2.389c-.3,1.189-.276,1.2.962,1.2C342.4,41.582,342.4,41.582,342.395,39.71Z" transform="translate(-334.759 -33.02)" fill="#f04e98"/><path d="M386.031,39.151c.629-.672,1.255-1.348,1.891-2.014.213-.223.467-.5.785-.208.345.312.1.6-.14.845-.713.721-1.421,1.448-2.156,2.147-.316.3-.306.514,0,.81.73.7,1.437,1.432,2.148,2.155.236.24.515.507.162.835-.309.287-.574.047-.8-.172-.655-.637-1.3-1.283-2.1-2.074,0,.712,0,1.21,0,1.709,0,.333-.065.656-.473.66-.376,0-.457-.321-.459-.613q-.017-2.91,0-5.82c0-.3.12-.587.506-.556.339.027.416.291.421.573.009.527,0,1.055,0,1.583Z" transform="translate(-374.94 -32.892)" fill="#f04e98"/></g></svg>