<svg xmlns="http://www.w3.org/2000/svg" width="18.596" height="17.272" viewBox="0 0 18.596 17.272"><g transform="translate(0 0)"><path d="M-296.123,32.187c0-1.941-.042-3.886,0-5.823a5.892,5.892,0,0,1,.224-1.032c.651-2.7.555-3.348.912-5a3.259,3.259,0,0,1,2.972-2.605,95.805,95.805,0,0,1,9.851-.046c2.137.076,3.183,1.162,3.581,3.293.343,1.84.787,3.642.989,5.528.108,1.824,0,3.706,0,5.559a3.7,3.7,0,0,1-3.987,2.78c-3.5.02-7,0-10.5.009A3.878,3.878,0,0,1-296.123,32.187Zm9.265-2.165c1.9,0,3.793.019,5.689-.005a2.623,2.623,0,0,0,2.656-3.174q-.5-2.9-.983-5.8a2.677,2.677,0,0,0-2.866-2.444q-4.5-.008-9,0a2.664,2.664,0,0,0-2.852,2.382q-.49,2.832-.958,5.668a2.653,2.653,0,0,0,2.886,3.371C-290.474,30.028-288.666,30.024-286.858,30.022Zm0,3.839q2.812,0,5.623,0a2.676,2.676,0,0,0,2.47-1.38,3.923,3.923,0,0,0,.316-2.259c-.018-.378-.24-.221-.4-.085a3.692,3.692,0,0,1-2.588.788q-5.193-.034-10.385,0a4.151,4.151,0,0,1-3.1-.827c-.173-.161-.319-.151-.351.128-.244,2.156.778,3.63,2.86,3.637C-290.563,33.866-288.71,33.861-286.858,33.861Z" transform="translate(296.142 -17.571)" fill="#66d1eb"/><path d="M-218.184,51.6c.462-1.1.834-1.994,1.209-2.884.085-.2.173-.405.27-.6.132-.267.333-.43.637-.287.272.128.284.373.189.623-.14.371-.289.738-.441,1.1q-.659,1.586-1.326,3.17c-.1.247-.222.507-.538.514s-.433-.262-.536-.507q-.855-2.041-1.7-4.087c-.126-.307-.277-.675.169-.837s.567.223.7.525C-219.119,49.353-218.692,50.384-218.184,51.6Z" transform="translate(230.556 -43.769)" fill="#66d1eb"/><path d="M-259.077,47.615c.462,0,.923-.005,1.385,0,.262,0,.491.083.51.395.02.342-.2.441-.5.48-.948.125-.948.13-.949,1.1,0,.9,0,1.8-.006,2.7,0,.351.006.788-.484.784s-.462-.457-.467-.8c-.017-.989-.03-1.979,0-2.967.016-.574-.153-.88-.782-.829-.308.025-.676,0-.679-.427,0-.481.395-.445.723-.451.417-.008.835,0,1.253,0Z" transform="translate(265.696 -43.632)" fill="#66d1eb"/></g></svg>