<?xml version="1.0" encoding="utf-8"?>
<!-- Generator: Adobe Illustrator 25.2.0, SVG Export Plug-In . SVG Version: 6.00 Build 0)  -->
<svg version="1.1" id="Capa_1" xmlns="http://www.w3.org/2000/svg" xmlns:xlink="http://www.w3.org/1999/xlink" x="0px" y="0px"
	 viewBox="0 0 115.2 53" style="enable-background:new 0 0 115.2 53;" xml:space="preserve">
<style type="text/css">
	.st0{fill:#D81F26;}
	.st1{fill:#FFFFFF;}
</style>
<g>
	<path id="Netflix_2015_logo" class="st0" d="M24.9,26.5c-1.6,0.3-3.2,0.4-4.8,0.6L15,12.2v15.4c-1.6,0.2-3,0.4-4.5,0.6V0h4.2
		l5.7,16.1V0h4.4C24.9,0,24.9,26.5,24.9,26.5z M33.6,10.4c1.7,0,4.3-0.1,5.9-0.1v4.4c-2,0-4.3,0-5.9,0.1v6.6
		c2.6-0.2,5.2-0.4,7.8-0.5v4.3l-12.2,1V0h12.2v4.4h-7.8L33.6,10.4z M57.8,4.4h-4.6v20.3c-1.5,0-3,0-4.4,0.1V4.4h-4.6V0h13.6
		L57.8,4.4L57.8,4.4z M65,10.1h6.1v4.4h-6v10h-4.3V0H73v4.4h-8L65,10.1L65,10.1z M80.2,20.6c2.5,0.1,5.1,0.2,7.5,0.4v4.4
		c-4-0.2-7.9-0.5-11.9-0.6V0h4.4V20.6z M91.5,25.7c1.4,0.1,2.9,0.2,4.3,0.3V0h-4.3V25.7z M115.2,0l-5.6,13.5l5.6,14.8
		c-1.7-0.2-3.3-0.5-5-0.8l-3.2-8.2l-3.2,7.5c-1.6-0.3-3.2-0.4-4.8-0.6l5.7-13L99.6,0h4.8l2.9,7.4l3.1-7.4H115.2L115.2,0z"/>
	<g id="Grupo_435" transform="translate(1170.653 915)">
		<path id="Trazado_276" class="st1" d="M-1073.7-870.3h-6.5v-3.6h-1.8v8.8h1.8v-3.7h6.5v3.7h1.8v-8.8h-1.8V-870.3z"/>
		<path id="Trazado_277" class="st1" d="M-1060.7-872.6c-0.4-0.4-1-0.8-1.6-1c-0.8-0.3-1.6-0.4-2.5-0.4h-5v8.8h5
			c0.8,0,1.6-0.1,2.4-0.4c0.6-0.2,1.1-0.5,1.6-1c0.4-0.4,0.7-0.9,0.9-1.4c0.2-0.5,0.3-1.1,0.3-1.7c0-0.6-0.1-1.1-0.3-1.7
			C-1060-871.7-1060.3-872.2-1060.7-872.6z M-1061.6-868.5c-0.1,0.3-0.3,0.7-0.5,0.9c-0.3,0.3-0.6,0.5-1,0.6
			c-0.5,0.2-1.1,0.3-1.6,0.2h-3.2v-5.7h3.2c0.6,0,1.1,0.1,1.6,0.2c0.4,0.1,0.7,0.3,1,0.6c0.2,0.3,0.4,0.6,0.5,0.9
			c0.1,0.3,0.2,0.7,0.2,1.1C-1061.4-869.2-1061.5-868.8-1061.6-868.5L-1061.6-868.5z"/>
		<path id="Trazado_278" class="st1" d="M-1058-878h-25.9c-1.4,0-2.5,1.1-2.5,2.5v11c0,1.4,1.1,2.5,2.5,2.5h25.9
			c1.4,0,2.5-1.1,2.5-2.5v-11C-1055.5-876.9-1056.6-878-1058-878z M-1056.3-864.5c0,0.9-0.7,1.7-1.7,1.7h-25.9
			c-0.9,0-1.7-0.7-1.7-1.7v-11c0-0.9,0.7-1.7,1.7-1.7h25.9c0.9,0,1.7,0.7,1.7,1.7L-1056.3-864.5z"/>
	</g>
	<g>
		<path class="st1" d="M7.6,48.7v1.2h-7v-1l4-3.9c1-1,1.2-1.6,1.2-2.2c0-1-0.7-1.6-2.1-1.6c-1.1,0-1.9,0.3-2.5,1.1l-1-0.8
			C1,40.5,2.3,40,3.8,40c2,0,3.4,1,3.4,2.7c0,1-0.3,1.8-1.6,3.1l-3,2.9H7.6z"/>
		<path class="st1" d="M20.8,46.2c0,2.3-1.6,3.8-3.8,3.8c-1.1,0-2-0.4-2.6-1.2v3.8h-1.3V42.5h1.3v1.2c0.6-0.8,1.6-1.2,2.6-1.2
			C19.2,42.4,20.8,43.9,20.8,46.2z M19.4,46.2c0-1.6-1.1-2.6-2.5-2.6c-1.4,0-2.5,1-2.5,2.6c0,1.6,1.1,2.6,2.5,2.6
			C18.3,48.8,19.4,47.8,19.4,46.2z"/>
		<path class="st1" d="M28.4,45.4v4.5h-1.3v-1c-0.4,0.7-1.3,1.1-2.4,1.1C23,50,22,49.1,22,47.8c0-1.2,0.8-2.2,3-2.2h2.1v-0.3
			c0-1.1-0.7-1.8-2-1.8c-0.9,0-1.8,0.3-2.4,0.8l-0.6-1c0.8-0.6,1.9-1,3.1-1C27.3,42.4,28.4,43.4,28.4,45.4z M27.1,47.6v-1H25
			c-1.3,0-1.7,0.5-1.7,1.1c0,0.7,0.6,1.2,1.6,1.2C26,49,26.8,48.5,27.1,47.6z"/>
		<path class="st1" d="M38,45.6v4.3h-1.3v-4.1c0-1.5-0.7-2.2-2-2.2c-1.4,0-2.4,0.9-2.4,2.5v3.8h-1.3v-7.4h1.3v1.1
			c0.5-0.8,1.5-1.2,2.7-1.2C36.7,42.4,38,43.5,38,45.6z"/>
		<path class="st1" d="M44.6,49.5c-0.4,0.4-1,0.5-1.6,0.5c-1.5,0-2.4-0.8-2.4-2.3v-4.1h-1.3v-1.1h1.3v-1.6H42v1.6h2.1v1.1H42v4
			c0,0.8,0.4,1.2,1.2,1.2c0.4,0,0.8-0.1,1.1-0.3L44.6,49.5z"/>
		<path class="st1" d="M52.1,45.4v4.5h-1.3v-1c-0.4,0.7-1.3,1.1-2.4,1.1c-1.7,0-2.7-0.9-2.7-2.2c0-1.2,0.8-2.2,3-2.2h2.1v-0.3
			c0-1.1-0.7-1.8-2-1.8c-0.9,0-1.8,0.3-2.4,0.8l-0.6-1c0.8-0.6,1.9-1,3.1-1C51,42.4,52.1,43.4,52.1,45.4z M50.8,47.6v-1h-2.1
			c-1.3,0-1.7,0.5-1.7,1.1c0,0.7,0.6,1.2,1.6,1.2C49.7,49,50.5,48.5,50.8,47.6z"/>
		<path class="st1" d="M54.6,39.5H56v10.4h-1.3V39.5z"/>
		<path class="st1" d="M58.5,39.5h1.3v10.4h-1.3V39.5z"/>
		<path class="st1" d="M68.3,45.4v4.5H67v-1c-0.4,0.7-1.3,1.1-2.4,1.1c-1.7,0-2.7-0.9-2.7-2.2c0-1.2,0.8-2.2,3-2.2H67v-0.3
			c0-1.1-0.7-1.8-2-1.8c-0.9,0-1.8,0.3-2.4,0.8l-0.6-1c0.8-0.6,1.9-1,3.1-1C67.2,42.4,68.3,43.4,68.3,45.4z M67,47.6v-1h-2.1
			c-1.3,0-1.7,0.5-1.7,1.1c0,0.7,0.6,1.2,1.6,1.2C65.8,49,66.6,48.5,67,47.6z"/>
		<path class="st1" d="M69.9,49.1l0.6-1.1c0.6,0.4,1.6,0.8,2.6,0.8c1.2,0,1.8-0.4,1.8-1c0-1.7-4.7-0.2-4.7-3.2
			c0-1.3,1.2-2.2,3.1-2.2c1,0,2.1,0.3,2.7,0.7l-0.6,1.1c-0.7-0.4-1.4-0.6-2.1-0.6c-1.2,0-1.8,0.4-1.8,1c0,1.8,4.7,0.3,4.7,3.2
			c0,1.3-1.2,2.2-3.2,2.2C71.7,50,70.5,49.6,69.9,49.1z"/>
	</g>
</g>
</svg>
