<?xml version="1.0" encoding="utf-8"?>
<!-- Generator: Adobe Illustrator 25.2.0, SVG Export Plug-In . SVG Version: 6.00 Build 0)  -->
<svg version="1.1" id="Capa_1" xmlns="http://www.w3.org/2000/svg" xmlns:xlink="http://www.w3.org/1999/xlink" x="0px" y="0px"
	 viewBox="0 0 171.1 54" style="enable-background:new 0 0 171.1 54;" xml:space="preserve">
<style type="text/css">
	.st0{fill:#D81F26;}
	.st1{fill:#FFFFFF;}
</style>
<g>
	<path id="Netflix_2015_logo" class="st0" d="M47.4,27c-1.6,0.3-3.2,0.4-4.8,0.6l-5.1-14.8v15.4c-1.6,0.2-3,0.4-4.5,0.6V0.5h4.2
		l5.7,16.1V0.5h4.4C47.4,0.5,47.4,27,47.4,27z M56.1,10.9c1.7,0,4.3-0.1,5.9-0.1v4.4c-2,0-4.3,0-5.9,0.1v6.6
		c2.6-0.2,5.2-0.4,7.8-0.5v4.3l-12.2,1V0.5h12.2v4.4h-7.8L56.1,10.9z M80.4,4.9h-4.6v20.3c-1.5,0-3,0-4.4,0.1V4.9h-4.6V0.5h13.6
		L80.4,4.9L80.4,4.9z M87.5,10.5h6.1V15h-6v10h-4.3V0.5h12.4v4.4h-8L87.5,10.5L87.5,10.5z M102.7,21.1c2.5,0.1,5.1,0.2,7.5,0.4v4.4
		c-4-0.2-7.9-0.5-11.9-0.6V0.5h4.4V21.1z M114,26.2c1.4,0.1,2.9,0.2,4.3,0.3v-26H114V26.2z M137.7,0.5l-5.6,13.5l5.6,14.8
		c-1.7-0.2-3.3-0.5-5-0.8l-3.2-8.2l-3.2,7.5c-1.6-0.3-3.2-0.4-4.8-0.6l5.7-13l-5.1-13.3h4.8l2.9,7.4l3.1-7.4H137.7L137.7,0.5z"/>
	<g id="Grupo_431" transform="translate(247.742 899)">
		<path id="Trazado_268" class="st1" d="M-150.5-852.5c0,0.6-0.1,1.1-0.4,1.6c-0.3,0.4-0.7,0.6-1.1,0.7c-0.5,0.1-1.1,0.2-1.6,0.2
			c-0.6,0-1.1-0.1-1.6-0.2c-0.4-0.1-0.8-0.4-1.1-0.7c-0.3-0.5-0.4-1-0.4-1.6v-4.9h-1.8v5.1c0,0.5,0.1,1,0.3,1.5
			c0.2,0.4,0.4,0.8,0.7,1.1c0.3,0.3,0.7,0.6,1.1,0.7c0.4,0.2,0.9,0.3,1.4,0.4c0.5,0.1,1.1,0.1,1.6,0.1c0.5,0,1,0,1.5-0.1
			c0.5-0.1,0.9-0.2,1.4-0.4c0.4-0.2,0.8-0.4,1.1-0.7c0.3-0.3,0.6-0.7,0.7-1.1c0.2-0.5,0.3-1,0.3-1.5v-5.1h-1.8L-150.5-852.5z"/>
		<path id="Trazado_269" class="st1" d="M-144.7-857.4h-1.8v8.8h7.7v-1.5h-5.9L-144.7-857.4z"/>
		<path id="Trazado_270" class="st1" d="M-139.2-855.9h3.8v7.3h1.8v-7.3h3.7v-1.5h-9.3V-855.9z"/>
		<path id="Trazado_271" class="st1" d="M-120-853c0.3-0.2,0.5-0.4,0.6-0.7c0.2-0.3,0.2-0.7,0.2-1.1c0-0.5-0.1-1.1-0.4-1.5
			c-0.3-0.4-0.7-0.7-1.2-0.9c-0.6-0.2-1.2-0.3-1.8-0.3h-6v8.8h1.8v-3.3h3.4c0.4,0,0.9,0,1.3,0.1c0.3,0,0.5,0.2,0.6,0.4
			c0.1,0.2,0.2,0.5,0.2,0.8v2h1.8v-2.1c0-0.4-0.1-0.8-0.3-1.1c-0.2-0.3-0.6-0.5-0.9-0.5c-0.3-0.1-0.5-0.1-0.8-0.1
			c0.2,0,0.3-0.1,0.5-0.1C-120.6-852.7-120.3-852.8-120-853z M-121.4-853.7c-0.3,0.3-0.7,0.4-1.2,0.4h-4.2v-2.6h4.2
			c0.4,0,0.8,0.1,1.2,0.3c0.3,0.2,0.4,0.6,0.4,0.9C-121-854.3-121.1-853.9-121.4-853.7L-121.4-853.7z"/>
		<path id="Trazado_272" class="st1" d="M-113.9-857.4l-4.1,8.8h2l0.9-1.9h4.6l0.9,1.9h2l-4.2-8.8H-113.9z M-114.6-852l1.6-3.6
			l1.6,3.6H-114.6z"/>
		<path id="Trazado_273" class="st1" d="M-94.9-853.8h-6.5v-3.6h-1.8v8.8h1.8v-3.7h6.5v3.7h1.8v-8.8h-1.8V-853.8z"/>
		<path id="Trazado_274" class="st1" d="M-81.9-856.1c-0.4-0.4-1-0.8-1.6-1c-0.8-0.3-1.6-0.4-2.5-0.4H-91v8.8h5.1
			c0.8,0,1.6-0.1,2.4-0.4c0.6-0.2,1.1-0.5,1.6-1c0.4-0.4,0.7-0.9,0.9-1.4c0.2-0.5,0.3-1.1,0.3-1.7c0-0.6-0.1-1.1-0.3-1.7
			C-81.2-855.2-81.5-855.7-81.9-856.1z M-82.8-852c-0.1,0.3-0.3,0.7-0.5,0.9c-0.3,0.3-0.6,0.5-1,0.6c-0.5,0.2-1.1,0.3-1.6,0.2h-3.2
			v-5.7h3.2c0.6,0,1.1,0.1,1.6,0.2c0.4,0.1,0.7,0.3,1,0.6c0.2,0.3,0.4,0.6,0.5,0.9c0.1,0.3,0.2,0.7,0.2,1.1
			C-82.6-852.7-82.7-852.3-82.8-852z"/>
		<path id="Trazado_275" class="st1" d="M-79.2-861.5h-81.3c-1.4,0-2.5,1.1-2.5,2.5v11c0,1.4,1.1,2.5,2.5,2.5h81.3
			c1.4,0,2.5-1.1,2.5-2.5v-11C-76.7-860.4-77.8-861.5-79.2-861.5z M-77.5-848c0,0.9-0.7,1.7-1.7,1.7h-81.3c-0.9,0-1.7-0.7-1.7-1.7
			v-11c0-0.9,0.7-1.7,1.7-1.7h81.3c0.9,0,1.7,0.7,1.7,1.7L-77.5-848z"/>
	</g>
	<g>
		<path class="st1" d="M9.2,48.2H7.3v2.4H6v-2.4H0.5v-1l5-6.4h1.5L2.3,47H6v-2.1h1.3V47h1.9V48.2z"/>
		<path class="st1" d="M22.1,46.9c0,2.3-1.6,3.8-3.8,3.8c-1.1,0-2-0.4-2.6-1.2v3.8h-1.3V43.1h1.3v1.2c0.6-0.8,1.6-1.2,2.6-1.2
			C20.5,43.1,22.1,44.6,22.1,46.9z M20.7,46.9c0-1.6-1.1-2.6-2.5-2.6c-1.4,0-2.5,1-2.5,2.6c0,1.6,1.1,2.6,2.5,2.6
			C19.7,49.5,20.7,48.4,20.7,46.9z"/>
		<path class="st1" d="M29.8,46.1v4.5h-1.3v-1c-0.4,0.7-1.3,1.1-2.4,1.1c-1.7,0-2.7-0.9-2.7-2.2c0-1.2,0.8-2.2,3-2.2h2.1V46
			c0-1.1-0.7-1.8-2-1.8c-0.9,0-1.8,0.3-2.4,0.8l-0.6-1c0.8-0.6,1.9-1,3.1-1C28.6,43.1,29.8,44.1,29.8,46.1z M28.4,48.3v-1h-2.1
			c-1.3,0-1.7,0.5-1.7,1.1c0,0.7,0.6,1.2,1.6,1.2C27.3,49.6,28.1,49.2,28.4,48.3z"/>
		<path class="st1" d="M39.3,46.3v4.3H38v-4.1c0-1.5-0.7-2.2-2-2.2c-1.4,0-2.4,0.9-2.4,2.5v3.8h-1.3v-7.4h1.3v1.1
			c0.5-0.8,1.5-1.2,2.7-1.2C38,43.1,39.3,44.1,39.3,46.3z"/>
		<path class="st1" d="M46,50.1c-0.4,0.4-1,0.5-1.6,0.5c-1.5,0-2.4-0.8-2.4-2.3v-4.1h-1.3v-1.1H42v-1.6h1.3v1.6h2.1v1.1h-2.1v4
			c0,0.8,0.4,1.2,1.2,1.2c0.4,0,0.8-0.1,1.1-0.3L46,50.1z"/>
		<path class="st1" d="M53.5,46.1v4.5h-1.3v-1c-0.4,0.7-1.3,1.1-2.4,1.1c-1.7,0-2.7-0.9-2.7-2.2c0-1.2,0.8-2.2,3-2.2h2.1V46
			c0-1.1-0.7-1.8-2-1.8c-0.9,0-1.8,0.3-2.4,0.8l-0.6-1c0.8-0.6,1.9-1,3.1-1C52.3,43.1,53.5,44.1,53.5,46.1z M52.1,48.3v-1H50
			c-1.3,0-1.7,0.5-1.7,1.1c0,0.7,0.6,1.2,1.6,1.2C51,49.6,51.8,49.2,52.1,48.3z"/>
		<path class="st1" d="M56,40.2h1.3v10.4H56V40.2z"/>
		<path class="st1" d="M59.9,40.2h1.3v10.4h-1.3V40.2z"/>
		<path class="st1" d="M69.7,46.1v4.5h-1.3v-1c-0.4,0.7-1.3,1.1-2.4,1.1c-1.7,0-2.7-0.9-2.7-2.2c0-1.2,0.8-2.2,3-2.2h2.1V46
			c0-1.1-0.7-1.8-2-1.8c-0.9,0-1.8,0.3-2.4,0.8l-0.6-1c0.8-0.6,1.9-1,3.1-1C68.5,43.1,69.7,44.1,69.7,46.1z M68.3,48.3v-1h-2.1
			c-1.3,0-1.7,0.5-1.7,1.1c0,0.7,0.6,1.2,1.6,1.2C67.2,49.6,68,49.2,68.3,48.3z"/>
		<path class="st1" d="M71.2,49.8l0.6-1.1c0.6,0.4,1.6,0.8,2.6,0.8c1.2,0,1.8-0.4,1.8-1c0-1.7-4.7-0.2-4.7-3.2
			c0-1.3,1.2-2.2,3.1-2.2c1,0,2.1,0.3,2.7,0.7l-0.6,1.1c-0.7-0.4-1.4-0.6-2.1-0.6c-1.2,0-1.8,0.4-1.8,1c0,1.8,4.7,0.3,4.7,3.2
			c0,1.3-1.2,2.2-3.2,2.2C73,50.7,71.8,50.3,71.2,49.8z"/>
	</g>
</g>
</svg>
