<svg xmlns="http://www.w3.org/2000/svg" width="16.001" height="14.62" viewBox="0 0 16.001 14.62"><g transform="translate(0 0)"><path d="M-230.628-8.49a8.316,8.316,0,0,1,2.458-4.671,1.759,1.759,0,0,1,.349-.284.53.53,0,0,1,.713.125.5.5,0,0,1,0,.674,5.89,5.89,0,0,1-.473.486,6.834,6.834,0,0,0,.154,9.785,3.2,3.2,0,0,1,.242.238c.219.254.315.536.056.808a.539.539,0,0,1-.809,0,7.5,7.5,0,0,1-1.228-1.323,9.054,9.054,0,0,1-1.459-3.464A8.927,8.927,0,0,1-230.628-8.49Z" transform="translate(230.709 13.548)" fill="#9f63c5"/><path d="M-118.725-6.27c0,.006,0,.012,0,.018a8.018,8.018,0,0,1-2,4.111,7.032,7.032,0,0,1-.776.723.531.531,0,0,1-.692-.028.5.5,0,0,1-.039-.749c.268-.315.584-.59.849-.907a6.817,6.817,0,0,0-.468-9.288c-.311-.3-.822-.628-.346-1.11.459-.465.817,0,1.135.308a8.377,8.377,0,0,1,2.336,4.553A9.154,9.154,0,0,1-118.725-6.27Z" transform="translate(134.65 13.696)" fill="#9f63c5"/><path d="M-176.621,30.187c0-.809-.012-1.619.005-2.428a.79.79,0,0,0-.446-.813,1.979,1.979,0,0,1-.921-2.376,2.084,2.084,0,0,1,2.038-1.4,2.082,2.082,0,0,1,1.92,1.7,1.979,1.979,0,0,1-.968,2.062.837.837,0,0,0-.476.854c.019,1.562.008,3.124.007,4.686a3.928,3.928,0,0,1-.015.507c-.045.34-.166.644-.578.635s-.544-.321-.551-.659c-.019-.922-.007-1.844-.007-2.766Zm.6-4.108a.833.833,0,0,0,.86-.9.856.856,0,0,0-.908-.867.858.858,0,0,0-.86.915A.837.837,0,0,0-176.017,26.079Z" transform="translate(184.043 -18.992)" fill="#9f63c5"/><path d="M-204.321,10.463a4.954,4.954,0,0,1,1.445-3.692c.3-.3.651-.628,1.056-.215.388.4.046.714-.232,1.006a3.9,3.9,0,0,0-.481,4.912c.194.274.451.5.671.76s.313.539.056.809c-.275.29-.573.212-.85-.026A4.723,4.723,0,0,1-204.321,10.463Z" transform="translate(207.307 -4.092)" fill="#9f63c5"/><path d="M-136.7,10.55a4.68,4.68,0,0,1-1.437,3.306c-.295.286-.63.668-1.051.251s-.067-.774.243-1.047a3.9,3.9,0,0,0,.434-4.912,7.762,7.762,0,0,0-.593-.678c-.257-.279-.4-.585-.079-.887s.622-.155.9.1A5,5,0,0,1-136.7,10.55Z" transform="translate(149.719 -4.141)" fill="#9f63c5"/></g></svg>