<svg xmlns="http://www.w3.org/2000/svg" width="15.116" height="13.968" viewBox="0 0 15.116 13.968"><g transform="translate(0 0)"><path d="M63.377,158.425c0-.713,0-1.391,0-2.069a1.073,1.073,0,0,1,.571-1.05,1.029,1.029,0,0,1,1.18.158c2.384,1.782,4.77,3.562,7.142,5.359a1.012,1.012,0,0,1,.013,1.7c-2.386,1.81-4.787,3.6-7.186,5.392a1,1,0,0,1-1.133.145,1.063,1.063,0,0,1-.586-1.041c0-.691,0-1.382,0-2.217l-2.114,1.865q-.929.821-1.856,1.644a1.05,1.05,0,0,1-1.212.255,1.038,1.038,0,0,1-.576-1.09q.009-5.788,0-11.576a1.05,1.05,0,0,1,.562-1.1,1.072,1.072,0,0,1,1.256.273q1.77,1.575,3.549,3.141A.553.553,0,0,0,63.377,158.425ZM58.356,161.7q0,2.784,0,5.567c0,.214-.054.474.2.585s.36-.128.5-.253c1.349-1.192,2.689-2.394,4.041-3.583.223-.2.426-.546.779-.414.393.147.29.551.295.87.01.79,0,1.58.007,2.37,0,.18-.026.389.173.489.178.09.316-.047.445-.144q3.419-2.56,6.837-5.122c.354-.265.386-.487.012-.766q-3.423-2.555-6.837-5.122c-.129-.1-.263-.235-.444-.157-.209.091-.185.3-.186.48-.005.827,0,1.654-.007,2.48,0,.285.067.632-.277.771-.314.127-.506-.151-.7-.327-1.364-1.2-2.719-2.416-4.083-3.619-.156-.137-.284-.4-.539-.3-.285.108-.209.4-.21.629Q58.351,158.913,58.356,161.7Z" transform="translate(-57.619 -154.693)" fill="#ffcb47"/></g></svg>