<svg xmlns="http://www.w3.org/2000/svg" width="21.437" height="15.314" viewBox="0 0 21.437 15.314"><g transform="translate(0 0)"><path d="M211.118,163.292a.958.958,0,0,1,.85-.954,5.807,5.807,0,0,1,.626-.019q9.2.014,18.4.007c1.278,0,1.557.291,1.558,1.581q0,5.077,0,10.155a1.319,1.319,0,0,1-1.271,1.33c-.126,0-.246.026-.485.054.275.478.517.885.747,1.3.163.295.209.587-.135.794s-.571-.007-.761-.27c-.1-.144-.188-.306-.284-.451a2.526,2.526,0,0,0-2.54-1.462c-4.274.089-8.551.05-12.827.017-.683-.005-.943.235-1.379.807a4.345,4.345,0,0,0-.506.852c-.163.354-.4.818-.925.484-.467-.3-.172-.669.008-1,.166-.3.348-.594.558-.946a.084.084,0,0,0-.056-.126c-.221-.037-.446-.046-.659-.072a1.044,1.044,0,0,1-.922-1.035Zm10.656,11.084c2.949,0,5.9-.016,8.848.012.669.006.94-.147.931-.884-.039-3.051-.034-6.1,0-9.153.007-.682-.176-.937-.895-.934q-8.848.035-17.7,0c-.646,0-.9.174-.889.861.031,3.076.037,6.153,0,9.229-.01.746.276.884.937.878C215.926,174.36,218.85,174.376,221.774,174.376Z" transform="translate(-211.118 -162.319)" fill="#f25da5"/></g></svg>