<svg xmlns="http://www.w3.org/2000/svg" width="174.624" height="41.4" viewBox="0 0 174.624 41.4">
  <g id="Grupo_436" data-name="Grupo 436" transform="translate(-144.508 -874)">
    <path id="Trazado_289" data-name="Trazado 289" d="M-78.924-8.4-82.608,0H-83.8l-3.7-8.4h1.3l3.024,6.9,3.048-6.9Zm.912,2.04h1.152V0h-1.152Zm.576-1.224a.768.768,0,0,1-.558-.216.708.708,0,0,1-.222-.528.728.728,0,0,1,.222-.534.757.757,0,0,1,.558-.222.78.78,0,0,1,.558.21.689.689,0,0,1,.222.522.742.742,0,0,1-.222.546A.757.757,0,0,1-77.436-7.584Zm8.772-1.32V0h-1.1V-1.008a2.494,2.494,0,0,1-.972.8,3.012,3.012,0,0,1-1.3.276,3.343,3.343,0,0,1-1.656-.408,2.923,2.923,0,0,1-1.146-1.146,3.411,3.411,0,0,1-.414-1.7,3.378,3.378,0,0,1,.414-1.692,2.935,2.935,0,0,1,1.146-1.14,3.343,3.343,0,0,1,1.656-.408,3.047,3.047,0,0,1,1.26.258,2.446,2.446,0,0,1,.96.762V-8.9ZM-71.94-.936a2.157,2.157,0,0,0,1.092-.282,1.978,1.978,0,0,0,.768-.792A2.419,2.419,0,0,0-69.8-3.18a2.419,2.419,0,0,0-.276-1.17,1.938,1.938,0,0,0-.768-.786,2.193,2.193,0,0,0-1.092-.276,2.184,2.184,0,0,0-1.1.276,1.99,1.99,0,0,0-.768.786,2.378,2.378,0,0,0-.282,1.17,2.378,2.378,0,0,0,.282,1.17,2.032,2.032,0,0,0,.768.792A2.147,2.147,0,0,0-71.94-.936Zm11.208-2.208a3.3,3.3,0,0,1-.024.348h-5.16a2,2,0,0,0,.738,1.35,2.408,2.408,0,0,0,1.566.51A2.359,2.359,0,0,0-61.776-1.7l.636.744a2.786,2.786,0,0,1-1.074.768,3.738,3.738,0,0,1-1.434.264,3.756,3.756,0,0,1-1.788-.414A2.953,2.953,0,0,1-66.642-1.5a3.32,3.32,0,0,1-.426-1.68,3.372,3.372,0,0,1,.414-1.668,2.966,2.966,0,0,1,1.14-1.158,3.247,3.247,0,0,1,1.638-.414,3.182,3.182,0,0,1,1.626.414,2.907,2.907,0,0,1,1.116,1.158A3.528,3.528,0,0,1-60.732-3.144Zm-3.144-2.3a1.991,1.991,0,0,0-1.386.5,2.032,2.032,0,0,0-.654,1.32h4.08a2.045,2.045,0,0,0-.654-1.314A1.977,1.977,0,0,0-63.876-5.448Zm7.464,5.52a3.449,3.449,0,0,1-1.7-.42A3.046,3.046,0,0,1-59.3-1.506a3.287,3.287,0,0,1-.426-1.674A3.287,3.287,0,0,1-59.3-4.854a3,3,0,0,1,1.182-1.152,3.489,3.489,0,0,1,1.7-.414,3.454,3.454,0,0,1,1.7.414,3.015,3.015,0,0,1,1.176,1.152,3.287,3.287,0,0,1,.426,1.674,3.287,3.287,0,0,1-.426,1.674A3.057,3.057,0,0,1-54.714-.348,3.415,3.415,0,0,1-56.412.072Zm0-1.008a2.147,2.147,0,0,0,1.1-.282,1.99,1.99,0,0,0,.762-.792,2.419,2.419,0,0,0,.276-1.17,2.419,2.419,0,0,0-.276-1.17,1.949,1.949,0,0,0-.762-.786,2.184,2.184,0,0,0-1.1-.276,2.184,2.184,0,0,0-1.1.276,1.99,1.99,0,0,0-.768.786,2.378,2.378,0,0,0-.282,1.17,2.378,2.378,0,0,0,.282,1.17,2.032,2.032,0,0,0,.768.792A2.147,2.147,0,0,0-56.412-.936Zm5.04-.636a.737.737,0,0,1,.558.234.813.813,0,0,1,.222.582,1.429,1.429,0,0,1-.042.348q-.042.168-.162.516l-.564,1.668h-.756l.444-1.788a.753.753,0,0,1-.366-.282.788.788,0,0,1-.138-.462.8.8,0,0,1,.228-.588A.781.781,0,0,1-51.372-1.572Zm13.62-4.848a2.583,2.583,0,0,1,1.9.7,2.786,2.786,0,0,1,.7,2.064V0H-36.3V-3.528a2.006,2.006,0,0,0-.426-1.392,1.563,1.563,0,0,0-1.218-.468,1.824,1.824,0,0,0-1.392.546,2.194,2.194,0,0,0-.516,1.566V0H-41V-3.528A2.006,2.006,0,0,0-41.43-4.92a1.563,1.563,0,0,0-1.218-.468,1.824,1.824,0,0,0-1.392.546,2.194,2.194,0,0,0-.516,1.566V0h-1.152V-6.36h1.1v.948a2.232,2.232,0,0,1,.912-.75,3.054,3.054,0,0,1,1.284-.258,2.816,2.816,0,0,1,1.32.3,2.085,2.085,0,0,1,.888.876,2.437,2.437,0,0,1,1-.864A3.265,3.265,0,0,1-37.752-6.42Zm10.656.06V0h-1.092V-.96a2.315,2.315,0,0,1-.918.762,2.864,2.864,0,0,1-1.242.27,2.775,2.775,0,0,1-2-.7,2.738,2.738,0,0,1-.732-2.07V-6.36h1.152v3.528a1.975,1.975,0,0,0,.444,1.4,1.658,1.658,0,0,0,1.272.474,1.9,1.9,0,0,0,1.44-.552,2.167,2.167,0,0,0,.528-1.56V-6.36Zm-2.256-2.484h1.464L-29.9-7.284h-1.08ZM-23.076.072a5.33,5.33,0,0,1-1.5-.21A3.294,3.294,0,0,1-25.7-.672l.48-.912a3.445,3.445,0,0,0,1.02.48,4.2,4.2,0,0,0,1.212.18q1.512,0,1.512-.864a.56.56,0,0,0-.2-.456,1.292,1.292,0,0,0-.51-.246q-.306-.078-.87-.174a8.526,8.526,0,0,1-1.254-.276,1.933,1.933,0,0,1-.834-.528A1.47,1.47,0,0,1-25.5-4.512,1.631,1.631,0,0,1-24.78-5.9a3.225,3.225,0,0,1,1.932-.522,5.322,5.322,0,0,1,1.272.156,3.421,3.421,0,0,1,1.044.42l-.492.912a3.308,3.308,0,0,0-1.836-.5,2.122,2.122,0,0,0-1.116.24.724.724,0,0,0-.384.636.606.606,0,0,0,.216.492,1.366,1.366,0,0,0,.534.264q.318.084.894.192a9.7,9.7,0,0,1,1.242.282,1.855,1.855,0,0,1,.81.51,1.421,1.421,0,0,1,.336,1.008,1.59,1.59,0,0,1-.738,1.374A3.485,3.485,0,0,1-23.076.072Zm4.188-6.432h1.152V0h-1.152Zm.576-1.224A.768.768,0,0,1-18.87-7.8a.708.708,0,0,1-.222-.528.728.728,0,0,1,.222-.534.757.757,0,0,1,.558-.222.78.78,0,0,1,.558.21.689.689,0,0,1,.222.522.742.742,0,0,1-.222.546A.757.757,0,0,1-18.312-7.584ZM-12.768.072A3.532,3.532,0,0,1-14.5-.348,3.077,3.077,0,0,1-15.7-1.506a3.251,3.251,0,0,1-.432-1.674A3.251,3.251,0,0,1-15.7-4.854,3.035,3.035,0,0,1-14.5-6.006a3.573,3.573,0,0,1,1.734-.414,3.328,3.328,0,0,1,1.542.348,2.479,2.479,0,0,1,1.05,1.008l-.876.564a1.957,1.957,0,0,0-.744-.684,2.122,2.122,0,0,0-.984-.228,2.275,2.275,0,0,0-1.122.276,1.967,1.967,0,0,0-.78.786,2.378,2.378,0,0,0-.282,1.17A2.4,2.4,0,0,0-14.682-2a1.967,1.967,0,0,0,.78.786,2.275,2.275,0,0,0,1.122.276,2.122,2.122,0,0,0,.984-.228,1.957,1.957,0,0,0,.744-.684l.876.552a2.516,2.516,0,0,1-1.05,1.014A3.282,3.282,0,0,1-12.768.072Zm6.4-6.492a2.877,2.877,0,0,1,2.022.648,2.5,2.5,0,0,1,.7,1.932V0H-4.74V-.84a1.821,1.821,0,0,1-.822.678A3.137,3.137,0,0,1-6.828.072a2.649,2.649,0,0,1-1.71-.516A1.655,1.655,0,0,1-9.18-1.8a1.67,1.67,0,0,1,.612-1.35,3.016,3.016,0,0,1,1.944-.51H-4.8v-.228a1.469,1.469,0,0,0-.432-1.14,1.822,1.822,0,0,0-1.272-.4,3.368,3.368,0,0,0-1.1.186,2.844,2.844,0,0,0-.912.5L-9-5.6A3.483,3.483,0,0,1-7.824-6.21,4.921,4.921,0,0,1-6.372-6.42Zm-.264,5.6A2.14,2.14,0,0,0-5.5-1.11a1.682,1.682,0,0,0,.7-.834v-.888H-6.576q-1.464,0-1.464.984a.89.89,0,0,0,.372.756A1.7,1.7,0,0,0-6.636-.816ZM7.344-6.36,4.26.636A3.155,3.155,0,0,1,3.306,2a2.178,2.178,0,0,1-1.314.4,2.777,2.777,0,0,1-.906-.15A1.86,1.86,0,0,1,.36,1.812L.852.948a1.6,1.6,0,0,0,1.14.468,1.1,1.1,0,0,0,.7-.222A1.893,1.893,0,0,0,3.2.432l.2-.444L.6-6.36H1.8L4.02-1.272l2.2-5.088ZM17.4-3.144a3.3,3.3,0,0,1-.024.348h-5.16a2,2,0,0,0,.738,1.35,2.408,2.408,0,0,0,1.566.51A2.359,2.359,0,0,0,16.356-1.7l.636.744a2.786,2.786,0,0,1-1.074.768,3.738,3.738,0,0,1-1.434.264A3.756,3.756,0,0,1,12.7-.342,2.953,2.953,0,0,1,11.49-1.5a3.32,3.32,0,0,1-.426-1.68,3.372,3.372,0,0,1,.414-1.668,2.966,2.966,0,0,1,1.14-1.158,3.247,3.247,0,0,1,1.638-.414,3.182,3.182,0,0,1,1.626.414A2.907,2.907,0,0,1,17-4.848,3.528,3.528,0,0,1,17.4-3.144Zm-3.144-2.3a1.991,1.991,0,0,0-1.386.5,2.032,2.032,0,0,0-.654,1.32H16.3a2.045,2.045,0,0,0-.654-1.314A1.977,1.977,0,0,0,14.256-5.448Zm8.136-.972a2.628,2.628,0,0,1,1.926.7,2.761,2.761,0,0,1,.714,2.058V0H23.88V-3.528a1.952,1.952,0,0,0-.444-1.392,1.67,1.67,0,0,0-1.272-.468,1.982,1.982,0,0,0-1.476.546,2.133,2.133,0,0,0-.54,1.566V0H19V-6.36h1.1v.96a2.239,2.239,0,0,1,.942-.756A3.292,3.292,0,0,1,22.392-6.42Zm10.284.06L29.892,0H28.716L25.932-6.36h1.2l2.184,5.1,2.232-5.1Zm1.08,0h1.152V0H33.756Zm1.308-2.484h1.464l-2.016,1.56h-1.08ZM39.828.072a3.449,3.449,0,0,1-1.7-.42,3.046,3.046,0,0,1-1.182-1.158,3.287,3.287,0,0,1-.426-1.674,3.287,3.287,0,0,1,.426-1.674,3,3,0,0,1,1.182-1.152,3.489,3.489,0,0,1,1.7-.414,3.454,3.454,0,0,1,1.7.414A3.015,3.015,0,0,1,42.7-4.854a3.287,3.287,0,0,1,.426,1.674A3.287,3.287,0,0,1,42.7-1.506,3.057,3.057,0,0,1,41.526-.348,3.415,3.415,0,0,1,39.828.072Zm0-1.008a2.147,2.147,0,0,0,1.1-.282,1.99,1.99,0,0,0,.762-.792,2.419,2.419,0,0,0,.276-1.17,2.419,2.419,0,0,0-.276-1.17,1.949,1.949,0,0,0-.762-.786,2.184,2.184,0,0,0-1.1-.276,2.184,2.184,0,0,0-1.1.276,1.99,1.99,0,0,0-.768.786,2.378,2.378,0,0,0-.282,1.17,2.378,2.378,0,0,0,.282,1.17,2.032,2.032,0,0,0,.768.792A2.147,2.147,0,0,0,39.828-.936ZM46.548.072a5.33,5.33,0,0,1-1.5-.21A3.294,3.294,0,0,1,43.92-.672l.48-.912a3.445,3.445,0,0,0,1.02.48,4.2,4.2,0,0,0,1.212.18q1.512,0,1.512-.864a.56.56,0,0,0-.2-.456,1.292,1.292,0,0,0-.51-.246q-.306-.078-.87-.174a8.526,8.526,0,0,1-1.254-.276,1.933,1.933,0,0,1-.834-.528,1.47,1.47,0,0,1-.348-1.044,1.631,1.631,0,0,1,.72-1.386,3.225,3.225,0,0,1,1.932-.522,5.322,5.322,0,0,1,1.272.156,3.421,3.421,0,0,1,1.044.42l-.492.912a3.308,3.308,0,0,0-1.836-.5,2.122,2.122,0,0,0-1.116.24.724.724,0,0,0-.384.636.606.606,0,0,0,.216.492,1.366,1.366,0,0,0,.534.264q.318.084.894.192a9.7,9.7,0,0,1,1.242.282,1.855,1.855,0,0,1,.81.51A1.421,1.421,0,0,1,49.3-1.812a1.59,1.59,0,0,1-.738,1.374A3.485,3.485,0,0,1,46.548.072Zm13.5-6.432v5.5A3.285,3.285,0,0,1,59.22,1.6a3.434,3.434,0,0,1-2.472.8,5.913,5.913,0,0,1-1.716-.246,3.4,3.4,0,0,1-1.32-.7l.552-.888a3.257,3.257,0,0,0,1.1.606,4.172,4.172,0,0,0,1.35.222,2.265,2.265,0,0,0,1.65-.528A2.172,2.172,0,0,0,58.9-.744v-.5a2.549,2.549,0,0,1-1,.738,3.338,3.338,0,0,1-1.29.246,3.476,3.476,0,0,1-1.65-.39A2.9,2.9,0,0,1,53.8-1.746a3.059,3.059,0,0,1-.42-1.6,3.059,3.059,0,0,1,.42-1.6,2.86,2.86,0,0,1,1.158-1.086A3.52,3.52,0,0,1,56.6-6.42a3.37,3.37,0,0,1,1.338.264,2.484,2.484,0,0,1,1.014.78V-6.36ZM56.736-1.272a2.358,2.358,0,0,0,1.122-.264,1.953,1.953,0,0,0,.78-.738,2.06,2.06,0,0,0,.282-1.074,1.947,1.947,0,0,0-.612-1.494,2.215,2.215,0,0,0-1.572-.57,2.231,2.231,0,0,0-1.584.57,1.947,1.947,0,0,0-.612,1.494,2.06,2.06,0,0,0,.282,1.074,1.953,1.953,0,0,0,.78.738A2.384,2.384,0,0,0,56.736-1.272Zm6.612-4.02a1.966,1.966,0,0,1,.888-.84,3.223,3.223,0,0,1,1.428-.288V-5.3a2.249,2.249,0,0,0-.264-.012,1.938,1.938,0,0,0-1.47.558,2.209,2.209,0,0,0-.534,1.59V0H62.244V-6.36h1.1ZM69.384-6.42a2.877,2.877,0,0,1,2.022.648,2.5,2.5,0,0,1,.7,1.932V0H71.016V-.84a1.821,1.821,0,0,1-.822.678,3.137,3.137,0,0,1-1.266.234,2.649,2.649,0,0,1-1.71-.516A1.655,1.655,0,0,1,66.576-1.8a1.67,1.67,0,0,1,.612-1.35,3.016,3.016,0,0,1,1.944-.51h1.824v-.228a1.469,1.469,0,0,0-.432-1.14,1.822,1.822,0,0,0-1.272-.4,3.368,3.368,0,0,0-1.1.186,2.844,2.844,0,0,0-.912.5l-.48-.864a3.483,3.483,0,0,1,1.176-.606A4.921,4.921,0,0,1,69.384-6.42Zm-.264,5.6a2.14,2.14,0,0,0,1.14-.294,1.682,1.682,0,0,0,.7-.834v-.888H69.18q-1.464,0-1.464.984a.89.89,0,0,0,.372.756A1.7,1.7,0,0,0,69.12-.816Zm8.7.444a1.719,1.719,0,0,1-.624.33,2.606,2.606,0,0,1-.768.114A2.04,2.04,0,0,1,74.94-.444a1.971,1.971,0,0,1-.528-1.476V-5.412h-1.08V-6.36h1.08V-7.752h1.152V-6.36h1.824v.948H75.564v3.444a1.117,1.117,0,0,0,.258.792A.961.961,0,0,0,76.56-.9a1.388,1.388,0,0,0,.9-.3ZM79.212-6.36h1.152V0H79.212Zm.576-1.224A.768.768,0,0,1,79.23-7.8a.708.708,0,0,1-.222-.528.728.728,0,0,1,.222-.534.757.757,0,0,1,.558-.222.78.78,0,0,1,.558.21.689.689,0,0,1,.222.522.742.742,0,0,1-.222.546A.757.757,0,0,1,79.788-7.584Zm4.6,7.656a5.33,5.33,0,0,1-1.5-.21,3.294,3.294,0,0,1-1.128-.534l.48-.912a3.445,3.445,0,0,0,1.02.48,4.2,4.2,0,0,0,1.212.18q1.512,0,1.512-.864a.56.56,0,0,0-.2-.456,1.292,1.292,0,0,0-.51-.246q-.306-.078-.87-.174a8.526,8.526,0,0,1-1.254-.276,1.933,1.933,0,0,1-.834-.528,1.47,1.47,0,0,1-.348-1.044A1.631,1.631,0,0,1,82.68-5.9a3.225,3.225,0,0,1,1.932-.522,5.322,5.322,0,0,1,1.272.156,3.421,3.421,0,0,1,1.044.42l-.492.912a3.308,3.308,0,0,0-1.836-.5,2.122,2.122,0,0,0-1.116.24.724.724,0,0,0-.384.636.606.606,0,0,0,.216.492,1.366,1.366,0,0,0,.534.264q.318.084.894.192a9.7,9.7,0,0,1,1.242.282,1.855,1.855,0,0,1,.81.51,1.421,1.421,0,0,1,.336,1.008,1.59,1.59,0,0,1-.738,1.374A3.485,3.485,0,0,1,84.384.072Z" transform="translate(232 913)" fill="#fff"/>
    <g id="g40" transform="translate(167.221 874)">
      <g id="g24" transform="translate(9.533 0)">
        <g id="g16" transform="translate(63.223)">
          <g id="g14">
            <path id="path4" d="M1776.317,289.62a.5.5,0,0,1-.568-.568V273.914c0-.189.048-.378.142-.426a.58.58,0,0,1,.426-.142h1.608a.578.578,0,0,1,.615.52l.142.568a4.931,4.931,0,0,1,1.656-1.041,5.649,5.649,0,0,1,1.94-.379,4.266,4.266,0,0,1,3.5,1.608,6.807,6.807,0,0,1,1.277,4.352,7.6,7.6,0,0,1-.615,3.264,5.319,5.319,0,0,1-1.7,2.176,4.14,4.14,0,0,1-2.507.757,5.223,5.223,0,0,1-1.75-.284,4.122,4.122,0,0,1-1.419-.8v4.967c0,.189-.047.378-.142.426a.579.579,0,0,1-.426.142Zm4.967-6.907a2.2,2.2,0,0,0,1.893-.852,4.926,4.926,0,0,0,.615-2.7,5.049,5.049,0,0,0-.568-2.744,2.14,2.14,0,0,0-1.892-.852,4.156,4.156,0,0,0-2.224.615V282.1a4.178,4.178,0,0,0,2.176.615Z" transform="translate(-1775.749 -268.049)" fill="#fff"/>
            <path id="path6" d="M2105.542,290.436a.5.5,0,0,1-.568-.568V279.414c0-.189.048-.379.142-.426a.578.578,0,0,1,.426-.142h1.609a.578.578,0,0,1,.615.52l.285,1.23a7.069,7.069,0,0,1,1.7-1.419,3.5,3.5,0,0,1,1.7-.426h.331a.706.706,0,0,1,.473.142.578.578,0,0,1,.142.426v1.892a.5.5,0,0,1-.567.568h-1.042a7.438,7.438,0,0,0-1.277.142,6.937,6.937,0,0,0-1.277.378v7.616a.5.5,0,0,1-.567.568h-2.129Z" transform="translate(-2091.397 -273.548)" fill="#fff"/>
            <path id="path8" d="M2320.231,156.068a1.867,1.867,0,0,1-1.372-.473,1.746,1.746,0,0,1-.521-1.277,1.6,1.6,0,0,1,.521-1.277,2.226,2.226,0,0,1,2.744,0,1.75,1.75,0,0,1,.52,1.277,1.674,1.674,0,0,1-.52,1.277A1.8,1.8,0,0,1,2320.231,156.068Zm-1.088,13.388a.5.5,0,0,1-.567-.568V158.434c0-.189.047-.378.142-.426a.578.578,0,0,1,.426-.142h2.176c.189,0,.379.047.426.142a.576.576,0,0,1,.142.426v10.455a.5.5,0,0,1-.568.568Z" transform="translate(-2295.963 -152.568)" fill="#fff"/>
            <path id="path10" d="M2473.769,284.937a.5.5,0,0,1-.568-.568V273.914c0-.189.047-.378.142-.426a.577.577,0,0,1,.426-.142h1.608a.577.577,0,0,1,.615.52l.189.615a10.764,10.764,0,0,1,2.176-1.135,5.839,5.839,0,0,1,1.987-.331,3.02,3.02,0,0,1,2.885,1.466,7.781,7.781,0,0,1,2.176-1.088,6.279,6.279,0,0,1,2.129-.331,3.217,3.217,0,0,1,2.46.9,3.379,3.379,0,0,1,.852,2.46v7.995a.5.5,0,0,1-.568.568H2488.1a.5.5,0,0,1-.568-.568v-7.332c0-1.041-.473-1.561-1.371-1.561a5.825,5.825,0,0,0-2.46.568v8.231a.5.5,0,0,1-.568.568h-2.176a.5.5,0,0,1-.568-.568v-7.238c0-1.041-.473-1.561-1.372-1.561a5.448,5.448,0,0,0-2.507.615v8.184a.5.5,0,0,1-.567.568h-2.176Z" transform="translate(-2444.439 -268.049)" fill="#fff"/>
            <path id="path12" d="M2956.224,285.268a5.652,5.652,0,0,1-4.306-1.561,6.13,6.13,0,0,1-1.513-4.4,6.547,6.547,0,0,1,1.561-4.636,5.5,5.5,0,0,1,4.3-1.656,4.8,4.8,0,0,1,3.312,1.041,3.355,3.355,0,0,1,1.183,2.7,2.865,2.865,0,0,1-1.277,2.555,6.9,6.9,0,0,1-3.785.852,10.006,10.006,0,0,1-2.223-.237,3.1,3.1,0,0,0,.9,2.176,3.709,3.709,0,0,0,2.365.662,9.958,9.958,0,0,0,1.23-.095c.379-.047.946-.189,1.656-.331.047,0,.095-.047.142-.047h.095c.236,0,.378.189.378.52v1.041a1.274,1.274,0,0,1-.094.52.868.868,0,0,1-.378.284A10,10,0,0,1,2956.224,285.268Zm-.757-7.1a2.992,2.992,0,0,0,1.655-.331,1.281,1.281,0,0,0,.52-1.088q0-1.419-1.7-1.419c-1.467,0-2.271.9-2.508,2.7C2954.049,278.077,2954.758,278.172,2955.467,278.172Z" transform="translate(-2901.964 -268.049)" fill="#fff"/>
          </g>
        </g>
        <g id="g22" transform="translate(0 17.39)">
          <path id="path18" d="M275.073,593.878a25.781,25.781,0,0,1-14.523,4.447,26.387,26.387,0,0,1-17.74-6.765c-.378-.331-.047-.8.426-.52a35.834,35.834,0,0,0,17.74,4.73,34.829,34.829,0,0,0,13.53-2.791C275.168,592.7,275.688,593.405,275.073,593.878Z" transform="translate(-242.646 -590.264)" fill="#fff" fill-rule="evenodd"/>
          <path id="path20" d="M953.943,576.027c-.521-.662-3.311-.284-4.589-.142-.379.048-.426-.284-.095-.52,2.271-1.609,5.96-1.136,6.386-.615s-.095,4.21-2.224,6.008c-.331.284-.615.142-.473-.237C953.375,579.338,954.463,576.689,953.943,576.027Z" transform="translate(-919.907 -574.258)" fill="#fff" fill-rule="evenodd"/>
        </g>
      </g>
      <g id="g38" transform="translate(0 5.109)">
        <path id="path26" d="M949.1,286.379v-1.514a.373.373,0,0,1,.379-.378h6.859a.348.348,0,0,1,.379.378v1.325c0,.237-.189.52-.521.946l-3.548,5.109a7.57,7.57,0,0,1,3.926.852.738.738,0,0,1,.379.615v1.656a.357.357,0,0,1-.52.331,8.062,8.062,0,0,0-7.285,0c-.236.142-.473-.142-.473-.378v-1.561a1.909,1.909,0,0,1,.237-1.041l4.115-5.913h-3.6A.524.524,0,0,1,949.1,286.379Z" transform="translate(-910.023 -284.156)" fill="#fff" fill-rule="evenodd"/>
        <path id="path28" d="M1178.287,280.927c-1.561,0-1.656,2.082-1.656,3.406s0,4.116,1.608,4.116,1.7-2.271,1.7-3.643a9.53,9.53,0,0,0-.331-2.838A1.231,1.231,0,0,0,1178.287,280.927Zm-.047-2.176c3.122,0,4.777,2.649,4.777,6.055,0,3.264-1.844,5.866-4.777,5.866-3.028,0-4.731-2.649-4.731-6.008C1173.556,281.353,1175.212,278.751,1178.24,278.751Z" transform="translate(-1125.588 -278.657)" fill="#fff" fill-rule="evenodd"/>
        <path id="path30" d="M686.182,289.336a.367.367,0,0,1-.473.047,5.7,5.7,0,0,1-1.183-1.372,4.066,4.066,0,0,1-3.453,1.514,2.969,2.969,0,0,1-3.122-3.264,3.508,3.508,0,0,1,2.223-3.406,14.007,14.007,0,0,1,3.926-.71,3.983,3.983,0,0,0-.236-1.8,1.454,1.454,0,0,0-1.183-.52,1.591,1.591,0,0,0-1.656,1.23c-.047.237-.237.426-.378.426l-1.987-.237a.382.382,0,0,1-.331-.426c.473-2.46,2.7-3.217,4.683-3.217a4.827,4.827,0,0,1,3.17,1.041c1.041.946.9,2.223.9,3.6V285.5a2.841,2.841,0,0,0,.8,1.94.43.43,0,0,1,0,.568A15.617,15.617,0,0,0,686.182,289.336Zm-2.129-5.109a4.431,4.431,0,0,1-.379,2.223,1.727,1.727,0,0,1-1.466.946c-.8,0-1.277-.615-1.277-1.514,0-1.8,1.608-2.129,3.122-2.129Z" transform="translate(-650.466 -277.557)" fill="#fff" fill-rule="evenodd"/>
        <path id="path32" d="M19.75,288.236a.367.367,0,0,1-.473.047,5.7,5.7,0,0,1-1.183-1.372,4.066,4.066,0,0,1-3.453,1.514,3.044,3.044,0,0,1-3.17-3.311,3.508,3.508,0,0,1,2.223-3.406,14.007,14.007,0,0,1,3.926-.71,3.98,3.98,0,0,0-.237-1.8,1.454,1.454,0,0,0-1.183-.52,1.591,1.591,0,0,0-1.656,1.23c-.047.237-.237.426-.378.426l-1.987-.236a.382.382,0,0,1-.331-.426c.473-2.46,2.7-3.217,4.683-3.217A4.827,4.827,0,0,1,19.7,277.5c1.041.946.9,2.223.9,3.6v3.264a2.84,2.84,0,0,0,.8,1.939.431.431,0,0,1,0,.568C20.932,287.2,19.75,288.236,19.75,288.236Zm-2.129-5.109a4.432,4.432,0,0,1-.378,2.223,1.726,1.726,0,0,1-1.466.946c-.8,0-1.277-.615-1.277-1.514,0-1.8,1.608-2.129,3.122-2.129Z" transform="translate(-11.471 -276.457)" fill="#fff" fill-rule="evenodd"/>
        <path id="path34" d="M295.308,285.481c0-1.23-.047-2.98,1.466-2.98,1.467,0,1.277,1.75,1.277,2.98v5.677a.373.373,0,0,0,.378.378h2.081a.417.417,0,0,0,.426-.378v-5.677a7.091,7.091,0,0,1,.189-2.034,1.483,1.483,0,0,1,1.23-.9,1.069,1.069,0,0,1,1.23.946,14.442,14.442,0,0,1,.047,2.034V291.2a.373.373,0,0,0,.379.379h2.081a.417.417,0,0,0,.426-.379V284.44c0-1.135.142-2.46-.52-3.359a3,3,0,0,0-2.413-1.183,2.954,2.954,0,0,0-2.886,1.987,2.855,2.855,0,0,0-5.44,0h-.047v-1.372a.373.373,0,0,0-.378-.378H292.9a.373.373,0,0,0-.378.378V291.2a.373.373,0,0,0,.378.379h2.081a.373.373,0,0,0,.378-.379Z" transform="translate(-280.927 -279.757)" fill="#fff" fill-rule="evenodd"/>
        <path id="path36" d="M1445.921,290.057a.373.373,0,0,1-.378.378h-2.081a.373.373,0,0,1-.379-.378V279.366a.373.373,0,0,1,.379-.378h1.94a.372.372,0,0,1,.378.284v1.656h.047a2.847,2.847,0,0,1,2.839-2.176,2.764,2.764,0,0,1,2.46,1.277,6.648,6.648,0,0,1,.568,3.359v6.765a.366.366,0,0,1-.378.331h-2.082a.4.4,0,0,1-.378-.331v-6.481c0-2.176-.852-2.223-1.325-2.223a1.354,1.354,0,0,0-1.183.852,4.969,4.969,0,0,0-.331,2.034Z" transform="translate(-1384.045 -278.657)" fill="#fff" fill-rule="evenodd"/>
      </g>
    </g>
  </g>
</svg>
