<svg id="Imagotipo_Tagline_Curvas" data-name="Imagotipo/Tagline Curvas" xmlns="http://www.w3.org/2000/svg" viewBox="0 0 290 29.62"><defs><style>.cls-1{fill:#75787b;}.cls-2{fill:#dbe442;}.cls-3{fill:#59cbe8;}.cls-4{fill:#e4002b;}.cls-5{fill:#ffbf3f;}.cls-6{fill:#8246af;}.cls-7{fill:#f04e98;}.cls-8{fill:#3b4559;}</style></defs><title>logo-totalplay-vive</title><g id="_Grupo_" data-name="&lt;Grupo&gt;"><g id="_Grupo_2" data-name="&lt;Grupo&gt;"><g id="_Grupo_3" data-name="&lt;Grupo&gt;"><path id="_Trazado_compuesto_" data-name="&lt;Trazado compuesto&gt;" class="cls-1" d="M283.85,12.74a3.08,3.08,0,0,1,6.15,0,3.08,3.08,0,0,1-6.15,0Zm.51,0a2.56,2.56,0,0,0,5.11,0,2.56,2.56,0,0,0-5.11,0Zm4,1.54h-.7l-.46-1.08c-.05-.1-.05-.12-.21-.12h-.54v1.2h-.6V11.17c.47,0,.81,0,1.14,0,.67,0,1.28.2,1.28,1a.87.87,0,0,1-.53.82C288,13.36,288.32,14.24,288.33,14.28Zm-1.91-2.6v.88h.6c.37,0,.63-.1.63-.4s-.23-.49-.67-.49C286.78,11.66,286.61,11.66,286.42,11.67Z"/><rect id="_Trazado_" data-name="&lt;Trazado&gt;" class="cls-2" x="248.69" y="4.59" width="3.75" height="19.23"/><path id="_Trazado_compuesto_2" data-name="&lt;Trazado compuesto&gt;" class="cls-3" d="M240.12,12.81c-1.6,0-2.65.61-2.65,2.3v3c0,1.85.59,3,2.6,3,2.51,0,2.86-2.25,2.86-4.31s-.3-4-2.81-4m.8,11.08a3.44,3.44,0,0,1-3.32-1.63h-.05v6.8h-3.77V10.16H237l.24,1.58h.05a4.14,4.14,0,0,1,3.8-1.87c4.09,0,5.7,3.21,5.7,6.88,0,3.83-1.58,7.14-5.83,7.14"/><path id="_Trazado_2" data-name="&lt;Trazado&gt;" class="cls-4" d="M276.18,24.13c-1.77,4.47-2.62,5.48-5.89,5.48a17,17,0,0,1-2-.13V26.35a12.8,12.8,0,0,0,1.5.08c1.44,0,1.79-.37,2.27-1.58l.62-1.53-5.27-13.16h4.09l3.11,9.28h.05l3-9.28h4Z"/><path id="_Trazado_compuesto_3" data-name="&lt;Trazado compuesto&gt;" class="cls-5" d="M266.54,20.44v-.58h0V15.28c0-3.85-1.47-5.41-5.41-5.41a13.56,13.56,0,0,0-6.45,1.6L255.87,14a10.27,10.27,0,0,1,4.92-1.39c1.36,0,2,.4,2,1.66V15c-3.34,0-8.4.43-8.4,4.87,0,2.6,1.79,4.09,4.33,4.09a7.09,7.09,0,0,0,4.47-1.59,1.15,1.15,0,0,0,0,.19c.41,1.29,2.63,1.38,4.31,1.29l.14-2.86C267,20.94,266.54,20.84,266.54,20.44Zm-3.69-.13a5.22,5.22,0,0,1-3.05,1.07A1.66,1.66,0,0,1,258,19.56c0-2.43,3-2.46,4.82-2.46Z"/><g id="_Grupo_4" data-name="&lt;Grupo&gt;"><path id="_Trazado_compuesto_4" data-name="&lt;Trazado compuesto&gt;" class="cls-1" d="M194.92,12.84c-2.35,0-3.08,1.42-3.08,4s.75,4.15,3.1,4.15S198,19.58,198,16.88s-.72-4-3.08-4m0,11.05c-4.65,0-6.9-2.84-6.9-7,0-3.91,2-7,6.9-7,4.52,0,6.87,2.68,6.87,7,0,4.15-2.19,7-6.87,7"/><polygon id="_Trazado_3" data-name="&lt;Trazado&gt;" class="cls-1" points="176.08 5.75 176.08 9.09 181.11 9.09 181.11 23.82 185.07 23.82 185.07 9.09 190.1 9.09 190.1 5.75 176.08 5.75"/><path id="_Trazado_4" data-name="&lt;Trazado&gt;" class="cls-1" d="M210.61,20.71c-1.93,0-2.11-.2-2.12-1.35q0-.09,0-.19v-6h3.1v-3h-3.1V6.61h-3.72v3.56h-2.22v3h2.19v6.4c0,3.24.88,4.25,4.52,4.25a23.09,23.09,0,0,0,2.33-.19v-3C211.31,20.67,211.08,20.7,210.61,20.71Z"/><rect id="_Trazado_5" data-name="&lt;Trazado&gt;" class="cls-1" x="227.92" y="4.59" width="3.75" height="19.23"/><path id="_Trazado_compuesto_5" data-name="&lt;Trazado compuesto&gt;" class="cls-1" d="M225.3,20.44v-.58h0V15.28c0-3.85-1.47-5.41-5.41-5.41a13.56,13.56,0,0,0-6.45,1.6L214.62,14a10.27,10.27,0,0,1,4.92-1.39c1.36,0,2,.4,2,1.66V15c-3.34,0-8.4.43-8.4,4.87,0,2.6,1.79,4.09,4.33,4.09a7.09,7.09,0,0,0,4.47-1.59,1.15,1.15,0,0,0,0,.19c.41,1.29,2.63,1.38,4.31,1.29l.14-2.86C225.71,20.94,225.3,20.84,225.3,20.44Zm-3.69-.13a5.22,5.22,0,0,1-3.05,1.07,1.66,1.66,0,0,1-1.77-1.82c0-2.43,3-2.46,4.82-2.46Z"/></g><g id="_Grupo_5" data-name="&lt;Grupo&gt;"><path id="_Trazado_6" data-name="&lt;Trazado&gt;" class="cls-5" d="M153.67,5.13a.58.58,0,0,0,0-1.1L146.89.13c-.52-.3-.95-.05-.95.55V8.5c0,.6.43.85.95.55Z"/><path id="_Trazado_7" data-name="&lt;Trazado&gt;" class="cls-6" d="M153.67,15.15a.58.58,0,0,0,0-1.1l-6.77-3.91c-.52-.3-.95-.05-.95.55v7.82c0,.6.43.85.95.55Z"/><path id="_Trazado_8" data-name="&lt;Trazado&gt;" class="cls-7" d="M153.67,25.16a.58.58,0,0,0,0-1.1l-6.77-3.91c-.52-.3-.95-.05-.95.55v7.82c0,.6.43.85.95.55Z"/><path id="_Trazado_9" data-name="&lt;Trazado&gt;" class="cls-3" d="M154.61,13.5c0,.6.43.85.95.55l6.77-3.91a.58.58,0,0,0,0-1.1l-6.77-3.91c-.52-.3-.95-.05-.95.55Z"/><path id="_Trazado_10" data-name="&lt;Trazado&gt;" class="cls-2" d="M154.61,23.51c0,.6.43.85.95.55l6.77-3.91a.58.58,0,0,0,0-1.1l-6.77-3.91c-.52-.3-.95-.05-.95.55Z"/><path id="_Trazado_11" data-name="&lt;Trazado&gt;" class="cls-4" d="M163.28,18.51c0,.6.43.85.95.55L171,15.15a.58.58,0,0,0,0-1.1l-6.77-3.91c-.52-.3-.95-.05-.95.55Z"/></g></g></g><g id="_Grupo_6" data-name="&lt;Grupo&gt;"><g id="_Grupo_7" data-name="&lt;Grupo&gt;"><path id="_Trazado_compuesto_6" data-name="&lt;Trazado compuesto&gt;" class="cls-8" d="M5.85,21.48H3.14L0,11.9H2.52l2.07,7,2.07-7H9Z"/><path id="_Trazado_compuesto_7" data-name="&lt;Trazado compuesto&gt;" class="cls-8" d="M10.94,13.58a1.22,1.22,0,1,1,0-2.43,1.22,1.22,0,1,1,0,2.43ZM9.78,21.48V14.32H12.1v7.17Z"/><path id="_Trazado_compuesto_8" data-name="&lt;Trazado compuesto&gt;" class="cls-8" d="M18,21.48H15.55l-2.72-7.17h2.49l1.46,4.81,1.46-4.81h2.46Z"/><path id="_Trazado_compuesto_9" data-name="&lt;Trazado compuesto&gt;" class="cls-8" d="M23.17,18.47a1.55,1.55,0,0,0,1.77,1.48A3.71,3.71,0,0,0,27,19.28l.75,1.34a4.49,4.49,0,0,1-3.15,1,3.49,3.49,0,0,1-3.76-3.73,3.5,3.5,0,0,1,3.74-3.74c2.14,0,3.37,1.51,3.37,3.7v.6Zm1.33-2.78a1.38,1.38,0,0,0-1.37,1.37h2.64A1.24,1.24,0,0,0,24.5,15.69Z"/><path id="_Trazado_compuesto_10" data-name="&lt;Trazado compuesto&gt;" class="cls-8" d="M31.52,21.48V11.62h2.32v9.87Z"/><path id="_Trazado_compuesto_11" data-name="&lt;Trazado compuesto&gt;" class="cls-8" d="M39.62,21.48a2.49,2.49,0,0,1-.15-.77,2.72,2.72,0,0,1-2.1.92A2.18,2.18,0,0,1,35,19.42c0-1.66,1.54-2.05,2.22-2.2A11.68,11.68,0,0,1,39.39,17v-.24c0-.74-.57-1-1.33-1a4.53,4.53,0,0,0-2.19.65l-.59-1.57a7.06,7.06,0,0,1,3-.71,4,4,0,0,1,2.52.69,2.57,2.57,0,0,1,.89,2.2v2.72a3.18,3.18,0,0,0,.35,1.71Zm-.23-3.21a10.82,10.82,0,0,0-1.09.09c-.39.08-1,.26-1,.87a.82.82,0,0,0,.91.86,1.33,1.33,0,0,0,1.19-.74Z"/><path id="_Trazado_compuesto_12" data-name="&lt;Trazado compuesto&gt;" class="cls-8" d="M47.51,18.47a1.55,1.55,0,0,0,1.77,1.48,3.71,3.71,0,0,0,2.07-.66l.75,1.34a4.49,4.49,0,0,1-3.15,1,3.49,3.49,0,0,1-3.76-3.73,3.5,3.5,0,0,1,3.74-3.74c2.14,0,3.37,1.51,3.37,3.7v.6Zm1.33-2.78a1.38,1.38,0,0,0-1.37,1.37H50.1A1.24,1.24,0,0,0,48.84,15.69Z"/><path id="_Trazado_compuesto_13" data-name="&lt;Trazado compuesto&gt;" class="cls-8" d="M57.66,21.48l-1.33-2.4L55,21.48H52.44l2.49-3.64-2.34-3.53h2.58l1.24,2.31,1.24-2.31h2.5l-2.34,3.53,2.49,3.64Z"/><path id="_Trazado_compuesto_14" data-name="&lt;Trazado compuesto&gt;" class="cls-8" d="M65.37,21.63a2.33,2.33,0,0,1-2.07-1.09V24H61V14.32h2.2l.12,1a2.52,2.52,0,0,1,2.16-1.1c1.86,0,3.06,1.52,3.06,3.73S67.24,21.63,65.37,21.63Zm-.66-5.72c-1,0-1.48.89-1.48,2s.5,2,1.46,2,1.46-.89,1.46-2S65.67,15.92,64.71,15.92Z"/><path id="_Trazado_compuesto_15" data-name="&lt;Trazado compuesto&gt;" class="cls-8" d="M71.5,18.47a1.55,1.55,0,0,0,1.77,1.48,3.71,3.71,0,0,0,2.07-.66l.75,1.34a4.49,4.49,0,0,1-3.15,1,3.49,3.49,0,0,1-3.76-3.73,3.5,3.5,0,0,1,3.74-3.74c2.14,0,3.37,1.51,3.37,3.7v.6Zm1.33-2.78a1.38,1.38,0,0,0-1.37,1.37h2.64A1.24,1.24,0,0,0,72.82,15.69Z"/><path id="_Trazado_compuesto_16" data-name="&lt;Trazado compuesto&gt;" class="cls-8" d="M82,16.43a2.08,2.08,0,0,0-.65-.11,1.47,1.47,0,0,0-.83.23,2,2,0,0,0-.85,1.31v3.62H77.35V14.32h2.19l.14,1.18a2.34,2.34,0,0,1,2-1.33,1.44,1.44,0,0,1,.57.08Z"/><path id="_Trazado_compuesto_17" data-name="&lt;Trazado compuesto&gt;" class="cls-8" d="M84.27,13.58a1.22,1.22,0,1,1,1.28-1.22A1.19,1.19,0,0,1,84.27,13.58Zm-1.16,7.91V14.32h2.32v7.17Z"/><path id="_Trazado_compuesto_18" data-name="&lt;Trazado compuesto&gt;" class="cls-8" d="M88.87,18.47a1.55,1.55,0,0,0,1.77,1.48,3.71,3.71,0,0,0,2.07-.66l.75,1.34a4.49,4.49,0,0,1-3.15,1,3.49,3.49,0,0,1-3.76-3.73,3.5,3.5,0,0,1,3.74-3.74c2.14,0,3.37,1.51,3.37,3.7v.6Zm1.33-2.78a1.38,1.38,0,0,0-1.37,1.37h2.64A1.24,1.24,0,0,0,90.2,15.69Z"/><path id="_Trazado_compuesto_19" data-name="&lt;Trazado compuesto&gt;" class="cls-8" d="M99.39,21.48v-4c0-.81-.23-1.34-1-1.34a1.39,1.39,0,0,0-1.3,1.25v4.13H94.73V14.32h2.19l.14,1.1a2.68,2.68,0,0,1,2.22-1.25c1.78,0,2.44,1.1,2.44,2.79v4.53Z"/><path id="_Trazado_compuesto_20" data-name="&lt;Trazado compuesto&gt;" class="cls-8" d="M109.33,20.59a3.75,3.75,0,0,1-2.88,1,3.53,3.53,0,0,1-3.7-3.73,3.89,3.89,0,0,1,6.55-2.69l-.85,1.51a2.32,2.32,0,0,0-1.61-.72,1.7,1.7,0,0,0-1.77,1.86,1.71,1.71,0,0,0,1.77,1.87A2.45,2.45,0,0,0,108.5,19Z"/><path id="_Trazado_compuesto_21" data-name="&lt;Trazado compuesto&gt;" class="cls-8" d="M111.37,13.58a1.22,1.22,0,1,1,1.28-1.22A1.19,1.19,0,0,1,111.37,13.58Zm-1.16,7.91V14.32h2.32v7.17Z"/><path id="_Trazado_compuesto_22" data-name="&lt;Trazado compuesto&gt;" class="cls-8" d="M118.31,21.48a2.48,2.48,0,0,1-.15-.77,2.72,2.72,0,0,1-2.1.92,2.18,2.18,0,0,1-2.41-2.22c0-1.66,1.54-2.05,2.22-2.2a11.68,11.68,0,0,1,2.22-.21v-.24c0-.74-.57-1-1.33-1a4.53,4.53,0,0,0-2.19.65L114,14.87a7.06,7.06,0,0,1,3-.71,4,4,0,0,1,2.52.69,2.57,2.57,0,0,1,.89,2.2v2.72a3.19,3.19,0,0,0,.35,1.71Zm-.23-3.21a10.82,10.82,0,0,0-1.09.09c-.39.08-1,.26-1,.87a.82.82,0,0,0,.91.86,1.33,1.33,0,0,0,1.19-.74Z"/></g></g></g></svg>