<svg xmlns="http://www.w3.org/2000/svg" width="120.5" height="20.535" viewBox="0 0 120.5 20.535"><g transform="translate(-1233.952 -373.046)"><g transform="translate(1233.952 373.046)"><g transform="translate(0 0)"><rect width="2.597" height="13.334" transform="translate(71.244 3.18)" fill="#bed253"/><path d="M1448.708,398.723c-1.112,0-1.837.426-1.837,1.6v2.058c0,1.282.409,2.1,1.8,2.1,1.744,0,1.985-1.557,1.985-2.987,0-1.466-.2-2.764-1.949-2.764m.557,7.68a2.386,2.386,0,0,1-2.3-1.131h-.037v4.716h-2.615v-13.1h2.208l.167,1.1h.037a2.872,2.872,0,0,1,2.635-1.3c2.839,0,3.951,2.226,3.951,4.769,0,2.653-1.1,4.953-4.044,4.953" transform="translate(-1383.406 -389.839)" fill="#3ab7da"/><path d="M1530.858,407.071c-1.225,3.1-1.818,3.8-4.082,3.8a11.781,11.781,0,0,1-1.411-.092v-2.171a8.836,8.836,0,0,0,1.039.055c1,0,1.244-.259,1.577-1.094l.427-1.058-3.655-9.128h2.837l2.153,6.437h.037l2.1-6.437h2.8Z" transform="translate(-1440.557 -390.339)" fill="#dd5761"/><path d="M1502.054,404.009v-3.578c0-2.672-1.021-3.749-3.748-3.749a9.4,9.4,0,0,0-4.471,1.113l.816,1.782a7.118,7.118,0,0,1,3.414-.964c.946,0,1.372.278,1.372,1.15v.443c-2.318-.017-5.824.3-5.824,3.378a2.734,2.734,0,0,0,3.005,2.839,4.917,4.917,0,0,0,3.1-1.1.806.806,0,0,0,.024.135c.283.9,1.825.96,2.99.9l.094-1.983C1502.338,404.355,1502.054,404.292,1502.054,404.009Zm-2.559-.091a3.619,3.619,0,0,1-2.115.741,1.15,1.15,0,0,1-1.224-1.261c0-1.688,2.114-1.707,3.34-1.707Z" transform="translate(-1418.433 -389.839)" fill="#f2c146"/><g transform="translate(20.898 3.18)"><path d="M1339.5,398.741c-1.633,0-2.135.984-2.135,2.8,0,1.855.521,2.876,2.153,2.876,1.6,0,2.115-1,2.115-2.876,0-1.818-.5-2.8-2.133-2.8m0,7.663c-3.228,0-4.786-1.967-4.786-4.86,0-2.708,1.392-4.861,4.786-4.861,3.136,0,4.767,1.855,4.767,4.861,0,2.876-1.521,4.86-4.767,4.86" transform="translate(-1326.435 -393.019)" fill="#fff"/><path d="M1306.129,386.815v2.319h3.487v10.209h2.746V389.133h3.487v-2.319Z" transform="translate(-1306.129 -386.009)" fill="#fff"/><path d="M1375.1,398.65c-1.336.033-1.464-.138-1.474-.933q0-.062,0-.129V393.43h2.152v-2.1h-2.152v-2.467h-2.58v2.467H1369.5v2.1h1.522v4.435c0,2.244.612,2.949,3.136,2.949a15.986,15.986,0,0,0,1.613-.13V398.6C1375.58,398.622,1375.42,398.642,1375.1,398.65Z" transform="translate(-1351.154 -387.467)" fill="#fff"/><rect width="2.597" height="13.334" transform="translate(35.944)" fill="#fff"/><path d="M1403.277,404.009v-3.578c0-2.672-1.021-3.749-3.748-3.749a9.4,9.4,0,0,0-4.471,1.113l.815,1.782a7.117,7.117,0,0,1,3.414-.964c.946,0,1.372.278,1.372,1.15v.443c-2.318-.017-5.824.3-5.824,3.378a2.734,2.734,0,0,0,3.005,2.839,4.918,4.918,0,0,0,3.1-1.1.789.789,0,0,0,.024.135c.283.9,1.825.96,2.99.9l.094-1.983C1403.561,404.355,1403.277,404.292,1403.277,404.009Zm-2.559-.091a3.619,3.619,0,0,1-2.115.741,1.15,1.15,0,0,1-1.224-1.261c0-1.688,2.114-1.707,3.34-1.707Z" transform="translate(-1369.153 -393.019)" fill="#fff"/></g><path d="M1239.306,376.606a.4.4,0,0,0,0-.759l-4.7-2.711c-.362-.209-.657-.038-.657.38v5.423c0,.417.3.588.657.38Z" transform="translate(-1233.952 -373.046)" fill="#f2c146"/><path d="M1239.306,400.581a.4.4,0,0,0,0-.759l-4.7-2.712c-.362-.209-.657-.038-.657.38v5.423c0,.418.3.589.657.38Z" transform="translate(-1233.952 -390.08)" fill="#7f579b"/><path d="M1239.306,424.557a.4.4,0,0,0,0-.759l-4.7-2.711c-.362-.209-.657-.038-.657.38v5.423c0,.417.3.588.657.38Z" transform="translate(-1233.952 -407.114)" fill="#d14582"/><path d="M1239.306,424.557a.4.4,0,0,0,0-.759l-4.7-2.711c-.362-.209-.657-.038-.657.38v5.423c0,.417.3.588.657.38Z" transform="translate(-1233.952 -407.114)" fill="#da5b82"/><path d="M1254.715,390.925c0,.418.3.589.658.38l4.7-2.712a.4.4,0,0,0,0-.759l-4.7-2.712c-.362-.209-.658-.038-.658.38Z" transform="translate(-1248.703 -381.563)" fill="#3ab7da"/><path d="M1254.715,414.9c0,.417.3.588.658.38l4.7-2.712a.4.4,0,0,0,0-.759l-4.7-2.712c-.362-.209-.658-.038-.658.38Z" transform="translate(-1248.703 -398.597)" fill="#bed253"/><path d="M1275.479,402.913c0,.418.3.589.657.38l4.7-2.712a.4.4,0,0,0,0-.759l-4.7-2.712c-.362-.209-.657-.038-.657.38Z" transform="translate(-1263.456 -390.08)" fill="#dd5761"/></g></g><g transform="translate(1333.085 377.02)"><path d="M1582.467,388.747v10.7h-2.495v-10.7h-3.632v-1.975h9.739v1.975Z" transform="translate(-1576.34 -386.772)" fill="#fff"/><path d="M1617.938,399.443h-2.794l-4.29-12.671h2.654l3.113,9.976,3.154-9.976h2.454Z" transform="translate(-1600.862 -386.772)" fill="#fff"/></g></g></svg>